<?xml version="1.0" encoding="UTF-8"?>
<svg version="1.1" xmlns="http://www.w3.org/2000/svg" width="512" height="512">
<path d="M0 0 C1.25345162 -0.00644889 2.50690323 -0.01289778 3.79833823 -0.0195421 C5.18151376 -0.0166001 6.56468888 -0.01346468 7.94786358 -0.01015663 C9.42330857 -0.01389432 10.89875158 -0.01849631 12.37419146 -0.02388728 C16.42504602 -0.03611802 20.47581798 -0.03585673 24.52668679 -0.03349853 C28.89695039 -0.03309038 33.26718751 -0.04412928 37.63743877 -0.05361366 C46.19821419 -0.07022493 54.75896207 -0.07572326 63.31975225 -0.07683842 C70.27844194 -0.07778881 77.23712255 -0.08189866 84.19580936 -0.08823967 C103.92560929 -0.10585224 123.65538745 -0.11507849 143.38519529 -0.11357872 C144.98057652 -0.11345885 144.98057652 -0.11345885 146.60818768 -0.11333656 C148.2055171 -0.11321392 148.2055171 -0.11321392 149.83511581 -0.1130888 C167.09431741 -0.11227585 184.35343175 -0.1314159 201.61260811 -0.1596133 C219.33483223 -0.18833871 237.05701378 -0.20215379 254.77926177 -0.20042574 C264.72871694 -0.19976174 274.67808063 -0.20525883 284.62751484 -0.22678185 C293.09844592 -0.2449891 301.56924404 -0.2493447 310.0401862 -0.235763 C314.36132955 -0.22923111 318.68221779 -0.22912405 323.00333691 -0.2464695 C326.96177928 -0.26219557 330.91976418 -0.25934159 334.87819537 -0.24190123 C336.30750924 -0.2388303 337.73685722 -0.24246733 339.16613088 -0.25362138 C350.72320052 -0.33781438 358.45420674 1.52116401 366.97317791 9.46430016 C373.18536513 15.93004604 375.00254913 22.47561897 374.95310307 31.24811077 C374.95660914 32.03911961 374.96011521 32.83012844 374.96372753 33.64510724 C374.97304333 36.2999402 374.96811775 38.95455389 374.9632597 41.60939598 C374.96699586 43.53031887 374.97159725 45.45124023 374.97699034 47.37215918 C374.98923986 52.65437835 374.98895757 57.93653428 374.98660159 63.21876442 C374.98619392 68.9141908 374.9972278 74.60959676 375.00671673 80.30501366 C375.02333823 91.46464262 375.02882679 102.62425046 375.02994148 113.78389076 C375.03089138 122.85356385 375.03499875 131.92322996 375.04134274 140.99290085 C375.05609106 162.51537214 375.06839214 184.03783656 375.06734562 205.56031322 C375.06729888 206.59274795 375.06729888 206.59274795 375.0672512 207.64603995 C375.06708499 211.13457529 375.06688691 214.62311063 375.06668179 218.11164597 C375.0666419 218.80448104 375.06660201 219.49731611 375.06656091 220.21114618 C375.06648003 221.61222748 375.06639644 223.01330878 375.06631012 224.41439008 C375.06508459 246.21336139 375.08009826 268.01227048 375.10745525 289.81122398 C375.13817841 314.30253726 375.15536228 338.79380252 375.15352881 363.28513736 C375.15286439 376.25271695 375.15837967 389.22022638 375.17988491 402.18778992 C375.19807612 413.22787724 375.20246093 424.26786259 375.18886606 435.3079584 C375.18232615 440.94145274 375.18225629 446.57475132 375.19957256 452.20822716 C375.21526279 457.36570748 375.21248095 462.52283617 375.1950043 467.68030771 C375.19192549 469.5456882 375.19559982 471.41109467 375.20672445 473.27644453 C375.27709243 485.91287723 374.39671181 494.98092785 365.48880291 504.53461266 C359.59682044 510.19553699 353.48660588 512.50398158 345.39166832 512.51453781 C344.1382167 512.5209867 342.88476508 512.5274356 341.59333009 512.53407991 C340.21015456 512.53113791 338.82697944 512.52800249 337.44380474 512.52469444 C335.96835975 512.52843213 334.49291673 512.53303413 333.01747686 512.53842509 C328.9666223 512.55065583 324.91585034 512.55039454 320.86498153 512.54803634 C316.49471793 512.54762819 312.12448081 512.55866709 307.75422955 512.56815147 C299.19345413 512.58476274 290.63270625 512.59026107 282.07191607 512.59137623 C275.11322638 512.59232662 268.15454577 512.59643648 261.19585896 512.60277748 C241.46605903 512.62039006 221.73628087 512.6296163 202.00647303 512.62811653 C200.94288554 512.62803662 199.87929805 512.62795671 198.78348064 512.62787437 C197.18615122 512.62775173 197.18615122 512.62775173 195.55655251 512.62762661 C178.29735091 512.62681366 161.03823657 512.64595371 143.77906021 512.67415111 C126.05683609 512.70287652 108.33465454 512.7166916 90.61240655 512.71496356 C80.66295138 512.71429955 70.71358769 512.71979664 60.76415348 512.74131966 C52.2932224 512.75952691 43.82242428 512.76388251 35.35148212 512.75030081 C31.03033877 512.74376892 26.70945053 512.74366186 22.38833141 512.76100731 C18.42988903 512.77673338 14.47190414 512.7738794 10.51347295 512.75643905 C9.08415908 512.75336811 7.6548111 512.75700515 6.22553744 512.7681592 C-5.3315322 512.85235219 -13.06253842 510.9933738 -21.58150959 503.05023766 C-27.79369681 496.58449177 -29.61088081 490.03891884 -29.56143475 481.26642704 C-29.56494082 480.47541821 -29.56844689 479.68440937 -29.57205921 478.86943057 C-29.58137501 476.21459761 -29.57644943 473.55998393 -29.57159138 470.90514183 C-29.57532754 468.98421894 -29.57992893 467.06329758 -29.58532202 465.14237863 C-29.59757154 459.86015946 -29.59728925 454.57800353 -29.59493327 449.29577339 C-29.5945256 443.60034701 -29.60555948 437.90494105 -29.61504841 432.20952415 C-29.63166991 421.04989519 -29.63715847 409.89028735 -29.63827316 398.73064705 C-29.63922306 389.66097396 -29.64333043 380.59130785 -29.64967442 371.52163696 C-29.66442274 349.99916567 -29.67672382 328.47670125 -29.6756773 306.95422459 C-29.67564614 306.26593477 -29.67561498 305.57764495 -29.67558288 304.86849786 C-29.67541667 301.37996252 -29.67521859 297.89142718 -29.67501347 294.40289184 C-29.67497358 293.71005677 -29.67493369 293.0172217 -29.67489259 292.30339163 C-29.67481171 290.90231033 -29.67472812 289.50122903 -29.6746418 288.10014773 C-29.67341627 266.30117642 -29.68842994 244.50226733 -29.71578693 222.70331383 C-29.74651009 198.21200055 -29.76369396 173.72073529 -29.76186049 149.22940046 C-29.76119607 136.26182086 -29.76671135 123.29431143 -29.78821659 110.32674789 C-29.8064078 99.28666057 -29.81079261 88.24667522 -29.79719774 77.20657941 C-29.79065783 71.57308507 -29.79058797 65.93978649 -29.80790424 60.30631065 C-29.82359447 55.14883033 -29.82081264 49.99170164 -29.80333598 44.8342301 C-29.80025717 42.96884961 -29.8039315 41.10344314 -29.81505613 39.23809328 C-29.88542411 26.60166058 -29.00504349 17.53360996 -20.09713459 7.97992516 C-14.20515212 2.31900083 -8.09493756 0.01055623 0 0 Z M-7.17916584 25.19476891 C-9.55947231 29.5586641 -9.44774658 33.88514795 -9.43559361 38.75772381 C-9.43764624 39.52001017 -9.43969887 40.28229653 -9.44181371 41.06768247 C-9.44749416 43.63677884 -9.44602517 46.20582177 -9.44460773 48.77492332 C-9.44719076 50.62954749 -9.45020375 52.4841711 -9.45361114 54.33879393 C-9.46169157 59.44695324 -9.46347129 64.5550985 -9.4642086 69.66326344 C-9.46605732 75.1678131 -9.47360369 80.67235543 -9.48034382 86.17690086 C-9.49393462 98.21807131 -9.49995289 110.25923843 -9.50435448 122.30041528 C-9.50711538 129.815648 -9.51135243 137.33087944 -9.51585865 144.8461113 C-9.52805181 165.64449062 -9.53838674 186.44286913 -9.54173374 207.24125195 C-9.54195537 208.58622532 -9.54217716 209.9311987 -9.54239909 211.27617208 C-9.54261973 212.62440034 -9.54284022 213.97262861 -9.54306054 215.32085687 C-9.5435031 218.02565372 -9.54395021 220.73045057 -9.54440022 223.43524742 C-9.54450961 224.10587977 -9.544619 224.77651213 -9.5447317 225.46746667 C-9.54836314 247.21763562 -9.56428677 268.96777126 -9.58759058 290.71792745 C-9.61218085 313.71078488 -9.62589946 336.70362862 -9.62710166 359.69650096 C-9.62801931 372.23143727 -9.63379444 384.76632996 -9.65192127 397.30125427 C-9.66729953 407.97325826 -9.67245615 418.64520514 -9.66418317 429.3172181 C-9.66026873 434.76409785 -9.66124498 440.21086251 -9.67524052 445.6577282 C-9.68793165 450.64242491 -9.68682415 455.6269195 -9.6746498 460.61161574 C-9.6726845 462.41645592 -9.67580951 464.22131018 -9.68449417 466.02613053 C-9.69554437 468.47743018 -9.68812849 470.92801112 -9.67610264 473.37929058 C-9.68369783 474.08171354 -9.69129303 474.78413651 -9.69911838 475.50784501 C-9.64598968 480.51653433 -8.54718914 483.87072425 -6.30416584 488.25726891 C-2.19938996 492.22963266 1.99359633 492.38204449 7.50961304 492.38869667 C8.70458163 492.39253782 9.89955022 492.39637896 11.13072997 492.4003365 C12.44500809 492.39947002 13.7592862 492.39860354 15.11339092 492.3977108 C16.52253685 492.40029459 17.93168204 492.40330779 19.34082621 492.4067142 C23.21761645 492.4147857 27.09438816 492.41657385 30.9711858 492.41731167 C35.15057092 492.41916194 39.32994642 492.42670911 43.50932598 492.43344688 C52.64976216 492.44703137 61.79019396 492.45305499 70.93063855 492.45745754 C76.63676659 492.46021953 82.34289292 492.46445678 88.04901981 492.46896172 C103.84449978 492.48115408 119.63997838 492.49145375 135.43546295 492.49483681 C136.9519954 492.49516616 136.9519954 492.49516616 138.49916486 492.49550216 C140.01934226 492.49582958 140.01934226 492.49582958 141.57023031 492.49616361 C143.62389839 492.49660707 145.67756647 492.49705364 147.73123455 492.49750328 C148.74992662 492.49772471 149.7686187 492.49794614 150.81818023 492.49817428 C167.32872592 492.50212323 183.83922751 492.51958037 200.34975616 492.5428628 C217.29671433 492.56656801 234.24365035 492.57903826 251.19062537 492.58020473 C260.70743441 492.58112191 270.22418597 492.58688511 279.74097919 492.60502434 C287.84382257 492.62041404 295.94659069 492.62555244 304.0494459 492.61728624 C308.18396665 492.61337584 312.31833579 492.61432828 316.45283794 492.62834358 C320.23848189 492.64105904 324.02385995 492.63990586 327.8095034 492.62775287 C329.82624888 492.62486342 331.84299886 492.63674942 333.85970813 492.64917493 C340.2164379 492.61434774 345.13767463 492.48171288 350.69583416 489.25726891 C355.06616872 484.74125653 354.84220565 479.74830834 354.82726192 473.756814 C354.82931456 472.99452764 354.83136719 472.23224128 354.83348203 471.44685534 C354.83916248 468.87775897 354.83769349 466.30871604 354.83627605 463.73961449 C354.83885908 461.88499032 354.84187207 460.03036671 354.84527946 458.17574388 C354.85335989 453.06758457 354.85513961 447.95943931 354.85587692 442.85127437 C354.85772564 437.34672472 354.86527201 431.84218238 354.87201214 426.33763695 C354.88560294 414.2964665 354.89162121 402.25529938 354.8960228 390.21412253 C354.8987837 382.69888981 354.90302075 375.18365837 354.90752697 367.66842651 C354.91972013 346.87004719 354.93005506 326.07166868 354.93340206 305.27328587 C354.93362369 303.92831249 354.93384548 302.58333911 354.93406741 301.23836573 C354.93428805 299.89013747 354.93450854 298.5419092 354.93472886 297.19368094 C354.93517141 294.48888409 354.93561853 291.78408724 354.93606853 289.07929039 C354.93617793 288.40865804 354.93628732 287.73802568 354.93640002 287.04707114 C354.94003146 265.29690219 354.95595509 243.54676655 354.9792589 221.79661036 C355.00384917 198.80375293 355.01756778 175.81090919 355.01876998 152.81803685 C355.01968763 140.28310054 355.02546276 127.74820786 355.04358959 115.21328354 C355.05896785 104.54127955 355.06412447 93.86933267 355.05585149 83.19731971 C355.05193705 77.75043996 355.0529133 72.3036753 355.06690884 66.85680962 C355.07959997 61.8721129 355.07849247 56.88761832 355.06631812 51.90292207 C355.06435282 50.09808189 355.06747783 48.29322763 355.07616249 46.48840728 C355.08721269 44.03710763 355.07979681 41.58652669 355.06777096 39.13524723 C355.07536615 38.43282427 355.08296134 37.7304013 355.0907867 37.0066928 C355.037658 31.99800348 353.93885746 28.64381356 351.69583416 24.25726891 C347.59105828 20.28490515 343.39807199 20.13249332 337.88205528 20.12584114 C336.0896024 20.12007942 336.0896024 20.12007942 334.26093835 20.11420131 C332.94666023 20.11506779 331.63238212 20.11593427 330.2782774 20.11682701 C328.86913147 20.11424322 327.45998628 20.11123002 326.05084211 20.10782361 C322.17405187 20.09975211 318.29728016 20.09796396 314.42048252 20.09722614 C310.2410974 20.09537587 306.0617219 20.08782871 301.88234234 20.08109093 C292.74190616 20.06750644 283.60147436 20.06148283 274.46102977 20.05708027 C268.75490173 20.05431828 263.04877539 20.05008103 257.34264851 20.0455761 C241.54716854 20.03338373 225.75168994 20.02308406 209.95620537 20.019701 C208.43967292 20.01937165 208.43967292 20.01937165 206.89250346 20.01903565 C205.37232606 20.01870824 205.37232606 20.01870824 203.82143801 20.0183742 C201.76776993 20.01793074 199.71410185 20.01748417 197.66043377 20.01703453 C196.6417417 20.0168131 195.62304962 20.01659167 194.57348809 20.01636353 C178.0629424 20.01241458 161.55244081 19.99495744 145.04191216 19.97167501 C128.09495399 19.9479698 111.14801797 19.93549955 94.20104295 19.93433309 C84.68423391 19.93341591 75.16748235 19.9276527 65.65068913 19.90951347 C57.54784575 19.89412377 49.44507763 19.88898537 41.34222241 19.89725158 C37.20770167 19.90116197 33.07333253 19.90020953 28.93883038 19.88619423 C25.15318643 19.87347877 21.36780837 19.87463195 17.58216492 19.88678494 C15.56541944 19.88967439 13.54866946 19.8777884 11.53196019 19.86536288 C1.23963011 19.83536715 1.23963011 19.83536715 -7.17916584 25.19476891 Z " fill="#FFFFFF" transform="translate(29.304165840148926,-0.25726890563964844)"/>
<path d="M0 0 C10.24816326 6.36401975 15.88111199 14.26833596 19.6796875 25.6640625 C19.78656575 27.6350786 19.8340507 29.60949613 19.85022163 31.5833416 C19.86269656 32.82748608 19.87517149 34.07163057 19.88802445 35.35347641 C19.89691841 36.74190626 19.90568469 38.13033693 19.91433716 39.51876831 C19.92694039 40.98816885 19.93992987 42.45756611 19.95327365 43.92696011 C19.98861098 47.97609113 20.0174286 52.02524618 20.04495692 56.0744369 C20.0692806 59.54601514 20.09718216 63.0175615 20.12491323 66.48911391 C20.38708863 99.52226023 20.52844835 132.5562742 20.64262581 165.59022331 C20.65779145 169.90048195 20.67324912 174.21073943 20.68896484 178.52099609 C20.69480551 180.12779693 20.69480551 180.12779693 20.70076416 181.76705839 C20.76537073 199.04036912 20.89301639 216.3126386 21.04542054 233.58537327 C21.2009476 251.36183084 21.29044236 269.13775155 21.31986225 286.91486943 C21.33991382 297.85100138 21.40882087 308.78443412 21.54362093 319.71976329 C21.63143554 327.2523358 21.65392043 334.78348383 21.62872411 342.31651555 C21.61605173 346.64085004 21.62848881 350.96043758 21.71963882 355.28393555 C22.20282484 379.44085639 17.11905798 397.19019014 5.83378849 418.56443634 C2.29749126 425.27366843 -0.67472184 432.15637913 -3.5703125 439.1640625 C-8.55132873 451.09472993 -8.55132873 451.09472993 -13.3203125 454.6640625 C-15.8203125 455.328125 -15.8203125 455.328125 -18.3203125 455.2890625 C-19.1453125 455.30195312 -19.9703125 455.31484375 -20.8203125 455.328125 C-24.46500682 454.36000307 -25.85037796 452.50391864 -28.3203125 449.6640625 C-29.89844124 446.93434337 -31.14648119 444.09221436 -32.39453125 441.19921875 C-32.76326859 440.37062851 -33.13200592 439.54203827 -33.51191711 438.68833923 C-34.68812336 436.03908155 -35.84836676 433.38319189 -37.0078125 430.7265625 C-38.12536752 428.195046 -39.24596798 425.66491675 -40.36900139 423.13582611 C-41.14021133 421.38802171 -41.9043616 419.63707219 -42.65898323 417.88204193 C-44.58883259 413.42189106 -46.59284394 409.07438565 -48.93002319 404.81201172 C-57.04783385 389.56084209 -57.72545004 376.0353653 -57.47265625 359.00390625 C-57.46667905 356.31198729 -57.46418235 353.62026424 -57.4657135 350.92835999 C-57.46107969 345.33664096 -57.41829062 339.74630683 -57.34936523 334.1550293 C-57.27012894 327.70369088 -57.24439952 321.25384787 -57.248043 314.80205816 C-57.25109534 308.55049884 -57.22560246 302.29942057 -57.18408394 296.04800606 C-57.16819116 293.40342675 -57.15832305 290.75880407 -57.1546154 288.11417961 C-57.14379221 284.43595196 -57.10008922 280.75961007 -57.04663086 277.08178711 C-57.04889679 275.99353638 -57.05116272 274.90528564 -57.05349731 273.78405762 C-56.89691625 266.42962804 -56.89691625 266.42962804 -53.9311676 262.49195862 C-51.10343228 260.51222163 -49.7365954 259.98568308 -46.3203125 260.0390625 C-45.0828125 260.01972656 -45.0828125 260.01972656 -43.8203125 260 C-40.04194619 261.00362855 -38.69972484 262.56169335 -36.3203125 265.6640625 C-35.60005726 269.09759108 -35.68809467 272.46534927 -35.75268555 275.9621582 C-35.75195541 276.99676682 -35.75122528 278.03137543 -35.75047302 279.09733582 C-35.75395235 282.51204115 -35.79283202 285.92537714 -35.83203125 289.33984375 C-35.84135809 291.70923619 -35.84847481 294.07863829 -35.85346985 296.44804382 C-35.87254949 302.6806201 -35.92165979 308.91261266 -35.97698975 315.1449585 C-36.02816069 321.50606388 -36.05097936 327.86726369 -36.07617188 334.22851562 C-36.12977681 346.70732882 -36.21772176 359.18555577 -36.3203125 371.6640625 C-24.4403125 371.6640625 -12.5603125 371.6640625 -0.3203125 371.6640625 C-0.3203125 271.0140625 -0.3203125 170.3640625 -0.3203125 66.6640625 C-12.2003125 66.6640625 -24.0803125 66.6640625 -36.3203125 66.6640625 C-36.29412842 70.2427417 -36.26794434 73.8214209 -36.2409668 77.50854492 C-36.15817559 89.3229623 -36.10265713 101.13739982 -36.06125164 112.9520216 C-36.03547587 120.11635822 -36.00033794 127.28041992 -35.94311523 134.44458008 C-35.89326032 140.68928805 -35.8610169 146.93379691 -35.84987003 153.17869836 C-35.8433545 156.48511527 -35.82543036 159.79083014 -35.79166222 163.0970974 C-35.75544708 166.78927983 -35.75036431 170.4802764 -35.75268555 174.17260742 C-35.73470917 175.26736893 -35.71673279 176.36213043 -35.69821167 177.49006653 C-35.74873656 184.90090186 -35.74873656 184.90090186 -38.69953918 188.84077454 C-41.5323432 190.81157355 -42.90492042 191.342428 -46.3203125 191.2890625 C-47.1453125 191.30195313 -47.9703125 191.31484375 -48.8203125 191.328125 C-52.45885499 190.36163715 -53.93628912 188.53544176 -56.3203125 185.6640625 C-56.9495182 182.5835638 -56.9495182 182.5835638 -56.95523071 179.06932068 C-56.96303067 178.42014697 -56.97083062 177.77097325 -56.97886693 177.10212761 C-56.99875803 174.93395708 -56.98303602 172.76754772 -56.96728516 170.59936523 C-56.97406314 169.04175291 -56.98296729 167.4841486 -56.99383545 165.92655945 C-57.01662756 161.69871204 -57.00778959 157.47147488 -56.99194002 153.24361682 C-56.97926471 148.81026763 -56.99102712 144.37697006 -56.99887085 139.94361877 C-57.00796933 132.49120741 -56.99598132 125.03904368 -56.97216797 117.58666992 C-56.94502606 108.99390209 -56.95371928 100.40172876 -56.9813 91.80897564 C-57.00406813 84.41761422 -57.00715158 77.02643079 -56.99410665 69.63504559 C-56.98634529 65.22704638 -56.98517709 60.81932541 -57.00178909 56.41134453 C-57.01634464 52.25865675 -57.00601253 48.10672565 -56.97731781 43.95411873 C-56.97076261 42.43852615 -56.97250811 40.92286879 -56.98363113 39.40730286 C-57.07201532 26.12929125 -54.2909736 15.62955501 -44.93359375 5.86328125 C-32.70510451 -4.42765962 -14.45118481 -7.16554593 0 0 Z M-32.5703125 23.9140625 C-37.02740026 30.91805755 -36.3203125 37.35321385 -36.3203125 45.6640625 C-24.4403125 45.6640625 -12.5603125 45.6640625 -0.3203125 45.6640625 C0.12923993 33.39278024 0.12923993 33.39278024 -4.97265625 22.7421875 C-10.24710238 18.05874696 -14.62884991 17.30930432 -21.59375 17.3828125 C-26.57957412 17.89710954 -29.16021846 20.50396846 -32.5703125 23.9140625 Z M-30.3203125 392.6640625 C-28.67514136 396.45601775 -27.02920695 400.24763844 -25.3828125 404.0390625 C-24.67995117 405.65941406 -24.67995117 405.65941406 -23.96289062 407.3125 C-23.51494141 408.34375 -23.06699219 409.375 -22.60546875 410.4375 C-22.19176025 411.39060059 -21.77805176 412.34370117 -21.35180664 413.32568359 C-20.70734109 414.78667555 -20.034432 416.23582349 -19.3203125 417.6640625 C-18.6603125 417.6640625 -18.0003125 417.6640625 -17.3203125 417.6640625 C-15.48394 413.6862914 -13.65172388 409.7066199 -11.8203125 405.7265625 C-11.29566406 404.59025391 -10.77101563 403.45394531 -10.23046875 402.28320312 C-9.73417969 401.20361328 -9.23789062 400.12402344 -8.7265625 399.01171875 C-8.26572266 398.01148682 -7.80488281 397.01125488 -7.33007812 395.98071289 C-6.25371805 393.93247043 -6.25371805 393.93247043 -6.3203125 392.6640625 C-14.2403125 392.6640625 -22.1603125 392.6640625 -30.3203125 392.6640625 Z " fill="#FFFFFF" transform="translate(492.3203125,57.3359375)"/>
<path d="M0 0 C4.80419258 1.28772172 7.71154481 4.54408958 11.07421875 8.06982422 C12.96494566 10.0360164 14.90044497 11.95290714 16.83984375 13.87109375 C20.80089647 17.79462162 24.73383169 21.7449593 28.65234375 25.7109375 C32.38558637 24.15806343 34.717509 21.8623491 37.53125 18.9921875 C38.45228516 18.06019531 39.37332031 17.12820313 40.32226562 16.16796875 C41.28681437 15.18264007 42.25100348 14.19695921 43.21484375 13.2109375 C45.1087314 11.28059845 47.00672698 9.354502 48.90625 7.4296875 C49.74486572 6.57310547 50.58348145 5.71652344 51.44750977 4.83398438 C54.79864662 1.6071561 56.9314746 0.39217576 61.52734375 0.2734375 C65.1952021 0.37532245 66.5386538 0.64272353 69.77734375 2.5859375 C72.01457021 6.31464826 72.62976203 8.73779825 72.36328125 13.05859375 C71.07555953 17.86278633 67.81919167 20.77013856 64.29345703 24.1328125 C62.32726485 26.02353941 60.41037411 27.95903872 58.4921875 29.8984375 C54.56865963 33.85949022 50.61832195 37.79242544 46.65234375 41.7109375 C48.20521782 45.44418012 50.50093215 47.77610275 53.37109375 50.58984375 C54.30308594 51.51087891 55.23507813 52.43191406 56.1953125 53.38085938 C57.18064118 54.34540812 58.16632204 55.30959723 59.15234375 56.2734375 C61.0826828 58.16732515 63.00877925 60.06532073 64.93359375 61.96484375 C66.2184668 63.22276733 66.2184668 63.22276733 67.52929688 64.50610352 C70.75612515 67.85724037 71.97110549 69.99006835 72.08984375 74.5859375 C71.9879588 78.25379585 71.72055772 79.59724755 69.77734375 82.8359375 C66.04863299 85.07316396 63.625483 85.68835578 59.3046875 85.421875 C54.50049492 84.13415328 51.59314269 80.87778542 48.23046875 77.35205078 C46.33974184 75.3858586 44.40424253 73.46896786 42.46484375 71.55078125 C38.50379103 67.62725338 34.57085581 63.6769157 30.65234375 59.7109375 C26.91910113 61.26381157 24.5871785 63.5595259 21.7734375 66.4296875 C20.85240234 67.36167969 19.93136719 68.29367187 18.98242188 69.25390625 C18.01787313 70.23923493 17.05368402 71.22491579 16.08984375 72.2109375 C14.1959561 74.14127655 12.29796052 76.067373 10.3984375 77.9921875 C9.14051392 79.27706055 9.14051392 79.27706055 7.85717773 80.58789062 C4.50604088 83.8147189 2.3732129 85.02969924 -2.22265625 85.1484375 C-5.8905146 85.04655255 -7.2339663 84.77915147 -10.47265625 82.8359375 C-12.70988271 79.10722674 -13.32507453 76.68407675 -13.05859375 72.36328125 C-11.77087203 67.55908867 -8.51450417 64.65173644 -4.98876953 61.2890625 C-3.02257735 59.39833559 -1.10568661 57.46283628 0.8125 55.5234375 C4.73602787 51.56238478 8.68636555 47.62944956 12.65234375 43.7109375 C11.09946968 39.97769488 8.80375535 37.64577225 5.93359375 34.83203125 C5.00160156 33.91099609 4.06960937 32.98996094 3.109375 32.04101562 C2.12404632 31.07646688 1.13836546 30.11227777 0.15234375 29.1484375 C-1.7779953 27.25454985 -3.70409175 25.35655427 -5.62890625 23.45703125 C-6.48548828 22.61841553 -7.34207031 21.7797998 -8.22460938 20.91577148 C-11.45143765 17.56463463 -12.66641799 15.43180665 -12.78515625 10.8359375 C-12.6832713 7.16807915 -12.41587022 5.82462745 -10.47265625 2.5859375 C-6.74394549 0.34871104 -4.3207955 -0.26648078 0 0 Z " fill="#FFFFFF" transform="translate(66.34765625,349.2890625)"/>
<path d="M0 0 C4.80419258 1.28772172 7.71154481 4.54408958 11.07421875 8.06982422 C12.96494566 10.0360164 14.90044497 11.95290714 16.83984375 13.87109375 C20.80089647 17.79462162 24.73383169 21.7449593 28.65234375 25.7109375 C32.38558637 24.15806343 34.717509 21.8623491 37.53125 18.9921875 C38.45228516 18.06019531 39.37332031 17.12820312 40.32226562 16.16796875 C41.28681437 15.18264007 42.25100348 14.19695921 43.21484375 13.2109375 C45.1087314 11.28059845 47.00672698 9.354502 48.90625 7.4296875 C49.74486572 6.57310547 50.58348145 5.71652344 51.44750977 4.83398438 C54.79864662 1.6071561 56.9314746 0.39217576 61.52734375 0.2734375 C65.1952021 0.37532245 66.5386538 0.64272353 69.77734375 2.5859375 C72.01457021 6.31464826 72.62976203 8.73779825 72.36328125 13.05859375 C71.07555953 17.86278633 67.81919167 20.77013856 64.29345703 24.1328125 C62.32726485 26.02353941 60.41037411 27.95903872 58.4921875 29.8984375 C54.56865963 33.85949022 50.61832195 37.79242544 46.65234375 41.7109375 C48.20521782 45.44418012 50.50093215 47.77610275 53.37109375 50.58984375 C54.30308594 51.51087891 55.23507813 52.43191406 56.1953125 53.38085938 C57.18064118 54.34540812 58.16632204 55.30959723 59.15234375 56.2734375 C61.0826828 58.16732515 63.00877925 60.06532073 64.93359375 61.96484375 C66.2184668 63.22276733 66.2184668 63.22276733 67.52929688 64.50610352 C70.75612515 67.85724037 71.97110549 69.99006835 72.08984375 74.5859375 C71.9879588 78.25379585 71.72055772 79.59724755 69.77734375 82.8359375 C66.04863299 85.07316396 63.625483 85.68835578 59.3046875 85.421875 C54.50049492 84.13415328 51.59314269 80.87778542 48.23046875 77.35205078 C46.33974184 75.3858586 44.40424253 73.46896786 42.46484375 71.55078125 C38.50379103 67.62725338 34.57085581 63.6769157 30.65234375 59.7109375 C26.91910113 61.26381157 24.5871785 63.5595259 21.7734375 66.4296875 C20.85240234 67.36167969 19.93136719 68.29367187 18.98242188 69.25390625 C18.01787313 70.23923493 17.05368402 71.22491579 16.08984375 72.2109375 C14.1959561 74.14127655 12.29796052 76.067373 10.3984375 77.9921875 C9.14051392 79.27706055 9.14051392 79.27706055 7.85717773 80.58789062 C4.50604088 83.8147189 2.3732129 85.02969924 -2.22265625 85.1484375 C-5.8905146 85.04655255 -7.2339663 84.77915147 -10.47265625 82.8359375 C-12.70988271 79.10722674 -13.32507453 76.68407675 -13.05859375 72.36328125 C-11.77087203 67.55908867 -8.51450417 64.65173644 -4.98876953 61.2890625 C-3.02257735 59.39833559 -1.10568661 57.46283628 0.8125 55.5234375 C4.73602787 51.56238478 8.68636555 47.62944956 12.65234375 43.7109375 C11.09946968 39.97769488 8.80375535 37.64577225 5.93359375 34.83203125 C5.00160156 33.91099609 4.06960937 32.98996094 3.109375 32.04101562 C2.12404632 31.07646688 1.13836546 30.11227777 0.15234375 29.1484375 C-1.7779953 27.25454985 -3.70409175 25.35655427 -5.62890625 23.45703125 C-6.48548828 22.61841553 -7.34207031 21.7797998 -8.22460938 20.91577148 C-11.45143765 17.56463463 -12.66641799 15.43180665 -12.78515625 10.8359375 C-12.6832713 7.16807915 -12.41587022 5.82462745 -10.47265625 2.5859375 C-6.74394549 0.34871104 -4.3207955 -0.26648078 0 0 Z " fill="#FFFFFF" transform="translate(66.34765625,213.2890625)"/>
<path d="M0 0 C0.64594557 -0.00779995 1.29189114 -0.01559991 1.95741081 -0.02363622 C4.11428335 -0.04352458 6.26938504 -0.02780701 8.42626953 -0.01205444 C9.97553536 -0.01883209 11.52479312 -0.02773605 13.07403564 -0.03860474 C17.27662175 -0.06138768 21.47859373 -0.05256619 25.68119049 -0.03670931 C30.08044584 -0.02404499 34.47964882 -0.03579189 38.87890625 -0.04364014 C46.26653478 -0.05273517 53.65391333 -0.04075271 61.04150391 -0.01693726 C69.58101624 0.01027386 78.11993169 0.00145958 86.65942955 -0.02606928 C93.99293309 -0.0487636 101.32625701 -0.0519589 108.65978432 -0.03887594 C113.03905648 -0.03108315 117.41804814 -0.03003495 121.79730225 -0.04655838 C125.91467968 -0.06100872 130.03128806 -0.05097192 134.14858246 -0.0220871 C135.65905226 -0.01547918 137.16958685 -0.01736906 138.68003082 -0.02840042 C140.74361356 -0.04208137 142.80473777 -0.02491639 144.86816406 0 C146.02220734 0.00188513 147.17625061 0.00377026 148.36526489 0.00571251 C152.37771825 0.82839383 153.8832229 2.50301976 156.43408203 5.63491821 C157.09814453 8.13491821 157.09814453 8.13491821 157.05908203 10.63491821 C157.07197266 11.45991821 157.08486328 12.28491821 157.09814453 13.13491821 C156.13190974 16.77250802 154.30382372 18.25075828 151.43408203 20.63491821 C148.36526489 21.26412392 148.36526489 21.26412392 144.86816406 21.26983643 C143.89924571 21.28153636 143.89924571 21.28153636 142.91075325 21.29347265 C140.75388072 21.31336101 138.59877902 21.29764343 136.44189453 21.28189087 C134.89262871 21.28866851 133.34337094 21.29757247 131.79412842 21.30844116 C127.59154232 21.33122411 123.38957033 21.32240262 119.18697357 21.30654573 C114.78771822 21.29388141 110.38851524 21.30562832 105.98925781 21.31347656 C98.60162928 21.32257159 91.21425073 21.31058913 83.82666016 21.28677368 C75.28714783 21.25956257 66.74823238 21.26837684 58.20873451 21.29590571 C50.87523097 21.31860002 43.54190706 21.32179532 36.20837975 21.30871236 C31.82910758 21.30091958 27.45011593 21.29987137 23.07086182 21.31639481 C18.95348438 21.33084515 14.836876 21.32080834 10.7195816 21.29192352 C9.2091118 21.2853156 7.69857721 21.28720549 6.18813324 21.29823685 C4.1245505 21.3119178 2.06342629 21.29475281 0 21.26983643 C-1.15404327 21.2679513 -2.30808655 21.26606617 -3.49710083 21.26412392 C-7.50955419 20.44144259 -9.01505884 18.76681666 -11.56591797 15.63491821 C-12.22998047 13.13491821 -12.22998047 13.13491821 -12.19091797 10.63491821 C-12.20380859 9.80991821 -12.21669922 8.98491821 -12.22998047 8.13491821 C-10.55042991 1.81190434 -6.0583817 0.00989636 0 0 Z " fill="#FFFFFF" transform="translate(193.56591796875,413.3650817871094)"/>
<path d="M0 0 C0.64594557 -0.00779995 1.29189114 -0.01559991 1.95741081 -0.02363622 C4.11428335 -0.04352458 6.26938504 -0.02780701 8.42626953 -0.01205444 C9.97553536 -0.01883209 11.52479312 -0.02773605 13.07403564 -0.03860474 C17.27662175 -0.06138768 21.47859373 -0.05256619 25.68119049 -0.03670931 C30.08044584 -0.02404499 34.47964882 -0.03579189 38.87890625 -0.04364014 C46.26653478 -0.05273517 53.65391333 -0.04075271 61.04150391 -0.01693726 C69.58101624 0.01027386 78.11993169 0.00145958 86.65942955 -0.02606928 C93.99293309 -0.0487636 101.32625701 -0.0519589 108.65978432 -0.03887594 C113.03905648 -0.03108315 117.41804814 -0.03003495 121.79730225 -0.04655838 C125.91467968 -0.06100872 130.03128806 -0.05097192 134.14858246 -0.0220871 C135.65905226 -0.01547918 137.16958685 -0.01736906 138.68003082 -0.02840042 C140.74361356 -0.04208137 142.80473777 -0.02491639 144.86816406 0 C146.02220734 0.00188513 147.17625061 0.00377026 148.36526489 0.00571251 C152.37771825 0.82839383 153.8832229 2.50301976 156.43408203 5.63491821 C157.09814453 8.13491821 157.09814453 8.13491821 157.05908203 10.63491821 C157.07197266 11.45991821 157.08486328 12.28491821 157.09814453 13.13491821 C156.13190974 16.77250802 154.30382372 18.25075828 151.43408203 20.63491821 C148.36526489 21.26412392 148.36526489 21.26412392 144.86816406 21.26983643 C143.89924571 21.28153636 143.89924571 21.28153636 142.91075325 21.29347265 C140.75388072 21.31336101 138.59877902 21.29764343 136.44189453 21.28189087 C134.89262871 21.28866851 133.34337094 21.29757247 131.79412842 21.30844116 C127.59154232 21.33122411 123.38957033 21.32240262 119.18697357 21.30654573 C114.78771822 21.29388141 110.38851524 21.30562832 105.98925781 21.31347656 C98.60162928 21.32257159 91.21425073 21.31058913 83.82666016 21.28677368 C75.28714783 21.25956257 66.74823238 21.26837684 58.20873451 21.29590571 C50.87523097 21.31860002 43.54190706 21.32179532 36.20837975 21.30871236 C31.82910758 21.30091958 27.45011593 21.29987137 23.07086182 21.31639481 C18.95348438 21.33084515 14.836876 21.32080834 10.7195816 21.29192352 C9.2091118 21.2853156 7.69857721 21.28720549 6.18813324 21.29823685 C4.1245505 21.3119178 2.06342629 21.29475281 0 21.26983643 C-1.15404327 21.2679513 -2.30808655 21.26606617 -3.49710083 21.26412392 C-7.50955419 20.44144259 -9.01505884 18.76681666 -11.56591797 15.63491821 C-12.22998047 13.13491821 -12.22998047 13.13491821 -12.19091797 10.63491821 C-12.20380859 9.80991821 -12.21669922 8.98491821 -12.22998047 8.13491821 C-10.55042991 1.81190434 -6.0583817 0.00989636 0 0 Z " fill="#FFFFFF" transform="translate(193.56591796875,277.3650817871094)"/>
<path d="M0 0 C0.64594557 -0.00779995 1.29189114 -0.01559991 1.95741081 -0.02363622 C4.11428335 -0.04352458 6.26938504 -0.02780701 8.42626953 -0.01205444 C9.97553536 -0.01883209 11.52479312 -0.02773605 13.07403564 -0.03860474 C17.27662175 -0.06138768 21.47859373 -0.05256619 25.68119049 -0.03670931 C30.08044584 -0.02404499 34.47964882 -0.03579189 38.87890625 -0.04364014 C46.26653478 -0.05273517 53.65391333 -0.04075271 61.04150391 -0.01693726 C69.58101624 0.01027386 78.11993169 0.00145958 86.65942955 -0.02606928 C93.99293309 -0.0487636 101.32625701 -0.0519589 108.65978432 -0.03887594 C113.03905648 -0.03108315 117.41804814 -0.03003495 121.79730225 -0.04655838 C125.91467968 -0.06100872 130.03128806 -0.05097192 134.14858246 -0.0220871 C135.65905226 -0.01547918 137.16958685 -0.01736906 138.68003082 -0.02840042 C140.74361356 -0.04208137 142.80473777 -0.02491639 144.86816406 0 C146.02220734 0.00188513 147.17625061 0.00377026 148.36526489 0.00571251 C152.37771825 0.82839383 153.8832229 2.50301976 156.43408203 5.63491821 C157.09814453 8.13491821 157.09814453 8.13491821 157.05908203 10.63491821 C157.07197266 11.45991821 157.08486328 12.28491821 157.09814453 13.13491821 C156.13190974 16.77250802 154.30382372 18.25075828 151.43408203 20.63491821 C148.36526489 21.26412392 148.36526489 21.26412392 144.86816406 21.26983643 C143.89924571 21.28153636 143.89924571 21.28153636 142.91075325 21.29347265 C140.75388072 21.31336101 138.59877902 21.29764343 136.44189453 21.28189087 C134.89262871 21.28866851 133.34337094 21.29757247 131.79412842 21.30844116 C127.59154232 21.33122411 123.38957033 21.32240262 119.18697357 21.30654573 C114.78771822 21.29388141 110.38851524 21.30562832 105.98925781 21.31347656 C98.60162928 21.32257159 91.21425073 21.31058913 83.82666016 21.28677368 C75.28714783 21.25956257 66.74823238 21.26837684 58.20873451 21.29590571 C50.87523097 21.31860002 43.54190706 21.32179532 36.20837975 21.30871236 C31.82910758 21.30091958 27.45011593 21.29987137 23.07086182 21.31639481 C18.95348438 21.33084515 14.836876 21.32080834 10.7195816 21.29192352 C9.2091118 21.2853156 7.69857721 21.28720549 6.18813324 21.29823685 C4.1245505 21.3119178 2.06342629 21.29475281 0 21.26983643 C-1.15404327 21.2679513 -2.30808655 21.26606617 -3.49710083 21.26412392 C-7.50955419 20.44144259 -9.01505884 18.76681666 -11.56591797 15.63491821 C-12.22998047 13.13491821 -12.22998047 13.13491821 -12.19091797 10.63491821 C-12.20380859 9.80991821 -12.21669922 8.98491821 -12.22998047 8.13491821 C-10.55042991 1.81190434 -6.0583817 0.00989636 0 0 Z " fill="#FFFFFF" transform="translate(193.56591796875,141.36508178710938)"/>
<path d="M0 0 C2.60432061 1.98750784 3.74529693 3.3086631 4.875 6.375 C5.18087232 12.79831869 2.08117392 16.25786464 -1.9576416 20.78546143 C-5.43366217 24.55452646 -9.04197919 28.18441181 -12.671875 31.8046875 C-13.47610901 32.60987823 -14.28034302 33.41506897 -15.10894775 34.24465942 C-16.79519952 35.93158718 -18.48269667 37.6172709 -20.17138672 39.30175781 C-22.75995342 41.88493268 -25.34309419 44.47344803 -27.92578125 47.0625 C-29.56999165 48.70605021 -31.2145119 50.34929051 -32.859375 51.9921875 C-33.6312616 52.76609833 -34.40314819 53.54000916 -35.19842529 54.33737183 C-35.91637268 55.05216705 -36.63432007 55.76696228 -37.37402344 56.50341797 C-38.31831207 57.44651321 -38.31831207 57.44651321 -39.28167725 58.40866089 C-43.20254142 62.03977413 -46.07769987 62.75562583 -51.26953125 62.61328125 C-56.20411169 61.50494201 -59.12344447 58.10600034 -62.52539062 54.53320312 C-64.20796742 52.78376897 -65.93604607 51.087206 -67.671875 49.390625 C-70.15664071 46.95074946 -72.63717962 44.50735711 -75.09375 42.0390625 C-75.60615234 41.52553223 -76.11855469 41.01200195 -76.64648438 40.48291016 C-80.27439612 36.50817423 -80.50663169 33.61374067 -80.36328125 28.453125 C-80 26 -80 26 -78.125 22.875 C-74.41682909 20.65009746 -71.99046293 20.04736291 -67.6953125 20.24609375 C-62.28109241 21.76050604 -58.76278302 26.01744381 -55 30 C-53.96055438 31.02309479 -52.91945722 32.04452198 -51.875 33.0625 C-51.25625 33.701875 -50.6375 34.34125 -50 35 C-47.02648492 33.66613323 -44.98437425 32.21737417 -42.71948242 29.88305664 C-42.10171432 29.25222672 -41.48394623 28.62139679 -40.84745789 27.97145081 C-40.19010147 27.2912236 -39.53274506 26.6109964 -38.85546875 25.91015625 C-37.44233867 24.47172873 -36.02891807 23.03358657 -34.61523438 21.59570312 C-32.3995401 19.33043855 -30.1871502 17.0621396 -27.98022461 14.78833008 C-25.84337954 12.59084836 -23.69408192 10.40616036 -21.54296875 8.22265625 C-20.89168503 7.54445328 -20.24040131 6.86625031 -19.56938171 6.16749573 C-13.63702989 0.17123073 -8.53278995 -3.70290885 0 0 Z " fill="#FFFFFF" transform="translate(134,100)"/>
<path d="M0 0 C0.73397003 -0.0087616 1.46794006 -0.01752319 2.22415161 -0.02655029 C4.64092814 -0.04848742 7.05586241 -0.03401381 9.47265625 -0.01708984 C11.15747426 -0.02045966 12.8422899 -0.02531367 14.52709961 -0.03158569 C18.05443517 -0.03894924 21.58113671 -0.0282688 25.10839844 -0.00488281 C29.62479619 0.02360539 34.13970837 0.00719854 38.65605164 -0.02274513 C42.13402454 -0.04083254 45.61164652 -0.03505363 49.08963013 -0.02210617 C50.75456926 -0.01877611 52.41954049 -0.02284521 54.08444214 -0.03450394 C56.41392108 -0.04723743 58.74101108 -0.02780549 61.0703125 0 C61.75513702 -0.01012115 62.43996155 -0.02024231 63.14553833 -0.03067017 C66.90601146 0.05228624 68.4671312 0.59249758 71.43920898 2.9725647 C74.08051014 6.34283882 74.53515625 8.38031515 74.53515625 12.64697266 C73.01998997 16.66216329 72.12963095 18.25065619 68.53515625 20.64697266 C66.08565822 20.85602109 63.74810306 20.95101523 61.29736328 20.95336914 C60.19684631 20.96585442 60.19684631 20.96585442 59.07409668 20.97859192 C56.64700016 21.002701 54.22017234 21.01146504 51.79296875 21.01806641 C50.10529499 21.02703213 48.41762206 21.03615396 46.72994995 21.04542542 C43.19087797 21.06192046 39.65190065 21.06961644 36.11279297 21.07250977 C31.58077608 21.0778939 27.04965041 21.11557217 22.51788521 21.16125393 C19.03141034 21.19101667 15.54515028 21.19823314 12.05855942 21.19923592 C10.38799839 21.20343989 8.71743681 21.21588141 7.04700089 21.23675346 C4.70791619 21.26365325 2.37089939 21.25884857 0.03173828 21.24633789 C-0.65622833 21.26117218 -1.34419495 21.27600647 -2.05300903 21.29129028 C-5.87302917 21.23319602 -7.38746959 20.70991837 -10.39187622 18.26576233 C-12.64574118 15.41844408 -13.14569543 14.22148027 -13.08984375 10.64697266 C-13.10273438 9.82197266 -13.115625 8.99697266 -13.12890625 8.14697266 C-11.33775661 1.40382107 -6.30093879 -0.0931228 0 0 Z " fill="#FFFFFF" transform="translate(194.46484375,349.35302734375)"/>
<path d="M0 0 C0.73397003 -0.0087616 1.46794006 -0.01752319 2.22415161 -0.02655029 C4.64092814 -0.04848742 7.05586241 -0.03401381 9.47265625 -0.01708984 C11.15747426 -0.02045966 12.8422899 -0.02531367 14.52709961 -0.03158569 C18.05443517 -0.03894924 21.58113671 -0.0282688 25.10839844 -0.00488281 C29.62479619 0.02360539 34.13970837 0.00719854 38.65605164 -0.02274513 C42.13402454 -0.04083254 45.61164652 -0.03505363 49.08963013 -0.02210617 C50.75456926 -0.01877611 52.41954049 -0.02284521 54.08444214 -0.03450394 C56.41392108 -0.04723743 58.74101108 -0.02780549 61.0703125 0 C61.75513702 -0.01012115 62.43996155 -0.02024231 63.14553833 -0.03067017 C66.90601146 0.05228624 68.4671312 0.59249758 71.43920898 2.9725647 C74.08051014 6.34283882 74.53515625 8.38031515 74.53515625 12.64697266 C73.01998997 16.66216329 72.12963095 18.25065619 68.53515625 20.64697266 C66.08565822 20.85602109 63.74810306 20.95101523 61.29736328 20.95336914 C60.19684631 20.96585442 60.19684631 20.96585442 59.07409668 20.97859192 C56.64700016 21.002701 54.22017234 21.01146504 51.79296875 21.01806641 C50.10529499 21.02703213 48.41762206 21.03615396 46.72994995 21.04542542 C43.19087797 21.06192046 39.65190065 21.06961644 36.11279297 21.07250977 C31.58077608 21.0778939 27.04965041 21.11557217 22.51788521 21.16125393 C19.03141034 21.19101667 15.54515028 21.19823314 12.05855942 21.19923592 C10.38799839 21.20343989 8.71743681 21.21588141 7.04700089 21.23675346 C4.70791619 21.26365325 2.37089939 21.25884857 0.03173828 21.24633789 C-0.65622833 21.26117218 -1.34419495 21.27600647 -2.05300903 21.29129028 C-5.87302917 21.23319602 -7.38746959 20.70991837 -10.39187622 18.26576233 C-12.64574118 15.41844408 -13.14569543 14.22148027 -13.08984375 10.64697266 C-13.10273438 9.82197266 -13.115625 8.99697266 -13.12890625 8.14697266 C-11.33775661 1.40382107 -6.30093879 -0.0931228 0 0 Z " fill="#FFFFFF" transform="translate(194.46484375,213.35302734375)"/>
<path d="M0 0 C0.73397003 -0.0087616 1.46794006 -0.01752319 2.22415161 -0.02655029 C4.64092814 -0.04848742 7.05586241 -0.03401381 9.47265625 -0.01708984 C11.15747426 -0.02045966 12.8422899 -0.02531367 14.52709961 -0.03158569 C18.05443517 -0.03894924 21.58113671 -0.0282688 25.10839844 -0.00488281 C29.62479619 0.02360539 34.13970837 0.00719854 38.65605164 -0.02274513 C42.13402454 -0.04083254 45.61164652 -0.03505363 49.08963013 -0.02210617 C50.75456926 -0.01877611 52.41954049 -0.02284521 54.08444214 -0.03450394 C56.41392108 -0.04723743 58.74101108 -0.02780549 61.0703125 0 C61.75513702 -0.01012115 62.43996155 -0.02024231 63.14553833 -0.03067017 C66.90601146 0.05228624 68.4671312 0.59249758 71.43920898 2.9725647 C74.08051014 6.34283882 74.53515625 8.38031515 74.53515625 12.64697266 C73.01998997 16.66216329 72.12963095 18.25065619 68.53515625 20.64697266 C66.08565822 20.85602109 63.74810306 20.95101523 61.29736328 20.95336914 C60.19684631 20.96585442 60.19684631 20.96585442 59.07409668 20.97859192 C56.64700016 21.002701 54.22017234 21.01146504 51.79296875 21.01806641 C50.10529499 21.02703213 48.41762206 21.03615396 46.72994995 21.04542542 C43.19087797 21.06192046 39.65190065 21.06961644 36.11279297 21.07250977 C31.58077608 21.0778939 27.04965041 21.11557217 22.51788521 21.16125393 C19.03141034 21.19101667 15.54515028 21.19823314 12.05855942 21.19923592 C10.38799839 21.20343989 8.71743681 21.21588141 7.04700089 21.23675346 C4.70791619 21.26365325 2.37089939 21.25884857 0.03173828 21.24633789 C-0.65622833 21.26117218 -1.34419495 21.27600647 -2.05300903 21.29129028 C-5.87302917 21.23319602 -7.38746959 20.70991837 -10.39187622 18.26576233 C-12.64574118 15.41844408 -13.14569543 14.22148027 -13.08984375 10.64697266 C-13.10273438 9.82197266 -13.115625 8.99697266 -13.12890625 8.14697266 C-11.33775661 1.40382107 -6.30093879 -0.0931228 0 0 Z " fill="#FFFFFF" transform="translate(194.46484375,77.35302734375)"/>
<path d="M0 0 C0.88464432 -0.01606293 1.76928864 -0.03212585 2.68074036 -0.04867554 C6.72839607 -0.09312606 10.77588777 -0.13419031 14.82373047 -0.15722656 C16.95860697 -0.17378732 19.09342801 -0.20107878 21.22802734 -0.23925781 C24.30554985 -0.29402224 27.38177265 -0.31590003 30.4597168 -0.33056641 C31.41195633 -0.35323578 32.36419586 -0.37590515 33.34529114 -0.39926147 C37.9821204 -0.38448111 40.04073286 -0.3289813 43.82128906 2.56933594 C45.87823181 5.40935994 46.40057532 6.72792552 46.34643555 10.19287109 C46.35932617 11.01787109 46.3722168 11.84287109 46.38549805 12.69287109 C45.38371992 16.46427111 43.81172307 17.81210578 40.72143555 20.19287109 C37.33488652 20.92241066 34.01861319 20.87034002 30.56518555 20.82177734 C29.58529663 20.8241893 28.60540771 20.82660126 27.5958252 20.8290863 C25.5281163 20.82810864 23.46038098 20.81473435 21.39282227 20.78979492 C18.23192222 20.75548492 15.07381846 20.76914098 11.9128418 20.78857422 C9.90111117 20.78167554 7.88938775 20.77200296 5.87768555 20.75927734 C4.93485718 20.76423721 3.99202881 20.76919708 3.02062988 20.77430725 C-1.26080361 20.69764414 -3.64749866 20.58528128 -7.35083008 18.2824707 C-10.360847 15.019713 -10.61192676 12.67522435 -10.5715332 8.23193359 C-10.11601479 5.06152542 -8.52540788 3.37363089 -6.27856445 1.19287109 C-3.96594742 0.03656258 -2.57544344 0.04246872 0 0 Z " fill="#FFFFFF" transform="translate(304.278564453125,349.80712890625)"/>
<path d="M0 0 C0.88464432 -0.01606293 1.76928864 -0.03212585 2.68074036 -0.04867554 C6.72839607 -0.09312606 10.77588777 -0.13419031 14.82373047 -0.15722656 C16.95860697 -0.17378732 19.09342801 -0.20107878 21.22802734 -0.23925781 C24.30554985 -0.29402224 27.38177265 -0.31590003 30.4597168 -0.33056641 C31.41195633 -0.35323578 32.36419586 -0.37590515 33.34529114 -0.39926147 C37.9821204 -0.38448111 40.04073286 -0.3289813 43.82128906 2.56933594 C45.87823181 5.40935994 46.40057532 6.72792552 46.34643555 10.19287109 C46.35932617 11.01787109 46.3722168 11.84287109 46.38549805 12.69287109 C45.38371992 16.46427111 43.81172307 17.81210578 40.72143555 20.19287109 C37.33488652 20.92241066 34.01861319 20.87034002 30.56518555 20.82177734 C29.58529663 20.8241893 28.60540771 20.82660126 27.5958252 20.8290863 C25.5281163 20.82810864 23.46038098 20.81473435 21.39282227 20.78979492 C18.23192222 20.75548492 15.07381846 20.76914098 11.9128418 20.78857422 C9.90111117 20.78167554 7.88938775 20.77200296 5.87768555 20.75927734 C4.93485718 20.76423721 3.99202881 20.76919708 3.02062988 20.77430725 C-1.26080361 20.69764414 -3.64749866 20.58528128 -7.35083008 18.2824707 C-10.360847 15.019713 -10.61192676 12.67522435 -10.5715332 8.23193359 C-10.11601479 5.06152542 -8.52540788 3.37363089 -6.27856445 1.19287109 C-3.96594742 0.03656258 -2.57544344 0.04246872 0 0 Z " fill="#FFFFFF" transform="translate(304.278564453125,213.80712890625)"/>
<path d="M0 0 C0.88464432 -0.01606293 1.76928864 -0.03212585 2.68074036 -0.04867554 C6.72839607 -0.09312606 10.77588777 -0.13419031 14.82373047 -0.15722656 C16.95860697 -0.17378732 19.09342801 -0.20107878 21.22802734 -0.23925781 C24.30554985 -0.29402224 27.38177265 -0.31590003 30.4597168 -0.33056641 C31.41195633 -0.35323578 32.36419586 -0.37590515 33.34529114 -0.39926147 C37.9821204 -0.38448111 40.04073286 -0.3289813 43.82128906 2.56933594 C45.87823181 5.40935994 46.40057532 6.72792552 46.34643555 10.19287109 C46.35932617 11.01787109 46.3722168 11.84287109 46.38549805 12.69287109 C45.38371992 16.46427111 43.81172307 17.81210578 40.72143555 20.19287109 C37.33488652 20.92241066 34.01861319 20.87034002 30.56518555 20.82177734 C29.58529663 20.8241893 28.60540771 20.82660126 27.5958252 20.8290863 C25.5281163 20.82810864 23.46038098 20.81473435 21.39282227 20.78979492 C18.23192222 20.75548492 15.07381846 20.76914098 11.9128418 20.78857422 C9.90111117 20.78167554 7.88938775 20.77200296 5.87768555 20.75927734 C4.93485718 20.76423721 3.99202881 20.76919708 3.02062988 20.77430725 C-1.26080361 20.69764414 -3.64749866 20.58528128 -7.35083008 18.2824707 C-10.360847 15.019713 -10.61192676 12.67522435 -10.5715332 8.23193359 C-10.11601479 5.06152542 -8.52540788 3.37363089 -6.27856445 1.19287109 C-3.96594742 0.03656258 -2.57544344 0.04246872 0 0 Z " fill="#FFFFFF" transform="translate(304.278564453125,77.80712890625)"/>
<path d="M0 0 C3.125 1.875 3.125 1.875 5 5 C5.98876625 10.02622846 5.7769173 13.70513784 3.125 18.125 C-1.29486216 20.7769173 -4.97377154 20.98876625 -10 20 C-13.125 18.125 -13.125 18.125 -15 15 C-15.98876625 9.97377154 -15.7769173 6.29486216 -13.125 1.875 C-8.70513784 -0.7769173 -5.02622846 -0.98876625 0 0 Z " fill="#FFFFFF" transform="translate(451,273)"/>
</svg>
